<?xml version="1.0" standalone="no"?>
<!DOCTYPE svg PUBLIC "-//W3C//DTD SVG 20010904//EN"
 "http://www.w3.org/TR/2001/REC-SVG-20010904/DTD/svg10.dtd">
<svg version="1.0" xmlns="http://www.w3.org/2000/svg"
 width="20.261455pt" height="20.164071pt" viewBox="0 0 20.261455 20.164071"
 preserveAspectRatio="xMidYMid meet">
<metadata>
Created by potrace 1.12, written by Peter Selinger 2001-2015
</metadata>
<g transform="translate(-6.869272,24.164071) scale(0.100000,-0.100000)"
fill="#000000" stroke="none">
<path d="M99 211 c-64 -65 -20 -171 71 -171 91 0 135 106 71 171 -41 41 -101
41 -142 0z m82 -21 c12 -7 19 -21 19 -38 0 -16 5 -33 12 -40 6 -6 9 -15 5 -19
-4 -4 -13 -1 -19 5 -7 7 -24 12 -40 12 -57 0 -58 75 0 89 2 1 12 -4 23 -9z"/>
<path d="M137 173 c-4 -3 -7 -15 -7 -25 0 -13 7 -18 25 -18 20 0 25 5 25 25 0
18 -5 25 -18 25 -10 0 -22 -3 -25 -7z"/>
</g>
</svg>
