<?xml version="1.0" standalone="no"?>
<!DOCTYPE svg PUBLIC "-//W3C//DTD SVG 20010904//EN"
 "http://www.w3.org/TR/2001/REC-SVG-20010904/DTD/svg10.dtd">
<svg version="1.0" xmlns="http://www.w3.org/2000/svg"
 width="22.016936pt" height="23.000000pt" viewBox="0 0 22.016936 23.000000"
 preserveAspectRatio="xMidYMid meet">
<metadata>
Created by potrace 1.12, written by Peter Selinger 2001-2015
</metadata>
<g transform="translate(-2.999829,27.000000) scale(0.100000,-0.100000)"
fill="#000000" stroke="none">
<path d="M77 222 c-45 -46 -59 -72 -37 -72 6 0 10 -22 10 -49 0 -57 6 -61 90
-61 84 0 90 4 90 61 0 27 5 49 10 49 22 0 7 28 -38 73 -26 26 -54 47 -63 47
-8 0 -36 -22 -62 -48z m100 -14 c29 -28 33 -38 33 -85 l0 -53 -70 0 -70 0 0
52 c0 45 4 57 32 85 18 18 34 33 37 33 3 0 20 -14 38 -32z"/>
<path d="M90 125 c0 -9 11 -21 25 -27 30 -13 75 3 75 27 0 19 -7 19 -26 0 -9
-8 -19 -15 -24 -15 -5 0 -15 7 -24 15 -19 19 -26 19 -26 0z"/>
</g>
</svg>
